:version 1.10
:name ASF
:units
  mass 1
  length 1
  angle deg
:documentation
  ASF file generated by Kaydara
:root
  axis xyz
  order  tx ty tz rx ry rz
  position 0 0 0
  orientation 0 0 0
:bonedata
  begin
    id 1
    name LeftUpLegDummy
    direction 1 -2.30186e-007 -8.31532e-007
    length 2.93387
    axis 0 0 0 xyz
  end
  begin
    id 2
    name LeftUpLeg
    direction -1.82929e-007 -1 -1.48925e-009
    length 17.3336
    axis -3.48766 0.00143442 -0.000521554 xyz
    dof rx ry rz
  end
  begin
    id 3
    name LeftLeg
    direction -1.82929e-007 -1 -5.23717e-011
    length 14.9995
    axis 3.68178 -0.00654042 -0.000282425 xyz
    dof rx ry rz
  end
  begin
    id 4
    name LeftFoot
    direction 8.31532e-007 -4.54534e-011 1
    length 6.74421
    axis 1.87234e-006 4.66016e-005 -5.96866e-006 xyz
    dof rx ry rz
  end
  begin
    id 5
    name LeftToes
    direction 0.00818058 -0.00485161 0.999955
    length 3.85048
    axis 1.06247e-005 4.65869e-005 -5.96999e-006 xyz
    dof rx ry rz
  end
  begin
    id 6
    name SpineDummy
    direction -5.8607e-008 0.943407 -0.331637
    length 5.93572
    axis 0 0 0 xyz
  end
  begin
    id 7
    name Spine
    direction -1.04988e-007 0.999988 0.00495137
    length 10.1015
    axis -0.001389 0.000121417 6.61666e-006 xyz
    dof rx ry rz
  end
  begin
    id 8
    name Spine1
    direction 0 0 0
    length 0
    axis -0.001389 0.00012144 6.56766e-006 xyz
    dof rx ry rz
  end
  begin
    id 9
    name RightShoulderDummy
    direction -0.98348 0.17941 -0.0240696
    length 3.59882
    axis -0.001389 0.00012144 6.56766e-006 xyz
  end
  begin
    id 10
    name RightShoulder
    direction -0.978693 0.204882 0.0135597
    length 2.70001
    axis 0.215806 0.000203631 -0.00679732 xyz
    dof rx ry rz
  end
  begin
    id 11
    name RightArm
    direction -1 3.85509e-006 8.31394e-007
    length 10.2459
    axis -23.2009 -0.134239 -0.964098 xyz
    dof rx ry rz
  end
  begin
    id 12
    name RightForeArm
    direction -1 3.85569e-006 8.3129e-007
    length 8.16799
    axis -9.92322 0.0658061 0.17887 xyz
    dof rx ry rz
  end
  begin
    id 13
    name RightHand
    direction -0.992843 -0.0414604 0.112003
    length 5.28593
    axis -0.00960638 0.00330669 -0.185225 xyz
    dof rx ry rz
  end
  begin
    id 14
    name LeftShoulder1Dummy
    direction 0.983523 0.179172 -0.0240748
    length 3.59866
    axis -0.001389 0.00012144 6.56766e-006 xyz
  end
  begin
    id 15
    name LeftShoulder1
    direction 0.978627 0.205195 0.0135605
    length 2.70019
    axis -0.001389 0.00012144 6.57583e-006 xyz
    dof rx ry rz
  end
  begin
    id 16
    name LeftArm
    direction 1 3.51895e-006 -8.60188e-007
    length 10.2459
    axis -23.1894 0.134785 0.967513 xyz
    dof rx ry rz
  end
  begin
    id 17
    name LeftForeArm
    direction 1 3.51921e-006 -7.32029e-007
    length 8.16799
    axis -9.91835 -0.0656957 -0.177789 xyz
    dof rx ry rz
  end
  begin
    id 18
    name LeftHand
    direction 0.992938 -0.0411636 0.11126
    length 5.32135
    axis -0.00960237 -0.00340661 0.185177 xyz
    dof rx ry rz
  end
  begin
    id 19
    name HEadDummy
    direction 1.01974e-006 0.999861 -0.016675
    length 2.99946
    axis -0.001389 0.00012144 6.56766e-006 xyz
  end
  begin
    id 20
    name HEad
    direction -0.0222689 0.980941 0.193023
    length 5.12695
    axis -0.001389 0.00012144 6.56766e-006 xyz
    dof rx ry rz
  end
  begin
    id 21
    name RightUpLegDummy
    direction -1 2.30186e-007 8.31532e-007
    length 2.93387
    axis 0 0 0 xyz
  end
  begin
    id 22
    name RightUpLeg
    direction -1.82966e-007 -1 1.56832e-007
    length 17.3336
    axis -3.4909 -0.000906625 0.00028951 xyz
    dof rx ry rz
  end
  begin
    id 23
    name RightLeg
    direction -1.82786e-007 -1 -1.80317e-007
    length 14.9995
    axis 3.68513 0.0193739 -0.131021 xyz
    dof rx ry rz
  end
  begin
    id 24
    name RightFoot
    direction 8.31721e-007 -4.63324e-011 1
    length 6.74421
    axis 4.81691e-005 -0.120479 -0.188785 xyz
    dof rx ry rz
  end
  begin
    id 25
    name RightToes
    direction 0.00124746 -0.014064 0.9999
    length 3.85082
    axis 0.000481921 0.542163 -0.142575 xyz
    dof rx ry rz
  end
:hierarchy
  begin
    root LeftUpLegDummy SpineDummy RightUpLegDummy
    LeftUpLegDummy LeftUpLeg
    LeftUpLeg LeftLeg
    LeftLeg LeftFoot
    LeftFoot LeftToes
    SpineDummy Spine
    Spine Spine1
    Spine1 RightShoulderDummy LeftShoulder1Dummy HEadDummy
    RightShoulderDummy RightShoulder
    RightShoulder RightArm
    RightArm RightForeArm
    RightForeArm RightHand
    LeftShoulder1Dummy LeftShoulder1
    LeftShoulder1 LeftArm
    LeftArm LeftForeArm
    LeftForeArm LeftHand
    HEadDummy HEad
    RightUpLegDummy RightUpLeg
    RightUpLeg RightLeg
    RightLeg RightFoot
    RightFoot RightToes
  end

:SAMPLES-PER-SECOND 30
:FULLY-SPECIFIED
:DEGREES
461
root  -0.748409 33.8261 -13.1539 -150.303 45.8105 -175.564
LeftUpLeg  -42.736 15.7306 -9.48918
LeftLeg  12.9725 -6.44291 -1.05315
LeftFoot  7.88283 0.0744346 -1.08637
LeftToes  -4.47671 7.65994e-007 1.12379e-007
Spine  15.4186 -2.20581 -1.15252
Spine1  29.2196 -6.83623 3.16616
RightShoulder  0.10396 7.81409 -4.2526
RightArm  12.4157 -13.7096 73.372
RightForeArm  110.877 78.3343 120.147
RightHand  -0.811146 -7.50864 12.6731
LeftShoulder1  0.345948 -2.49468 -2.21676
LeftArm  -11.0463 -13.6615 -62.6965
LeftForeArm  137.804 -66.3791 -155.781
LeftHand  0.370161 3.29469 12.4213
HEad  -19.3906 2.68312 -3.91202
RightUpLeg  -43.2307 -14.9828 4.46504
RightLeg  20.0727 9.32908 2.72999
RightFoot  9.37058 -0.0845545 1.40912
RightToes  -31.2121 -0.152356 -0.25628
462
root  -0.686059 33.8333 -13.1788 -151.324 46.1692 -176.153
LeftUpLeg  -41.7787 15.6966 -9.52667
LeftLeg  12.6904 -6.1389 -0.972759
LeftFoot  7.80797 0.0712744 -1.05397
LeftToes  -5.61628 7.65994e-007 1.12379e-007
Spine  14.9879 -2.27416 -1.15592
Spine1  28.3616 -6.99597 3.16751
RightShoulder  0.0979787 7.7746 -4.29248
RightArm  12.4448 -13.9755 73.6287
RightForeArm  109.217 78.5103 118.571
RightHand  -0.779157 -7.44725 12.2883
LeftShoulder1  0.333223 -1.70711 -1.92629
LeftArm  -10.8503 -16.8798 -63.3996
LeftForeArm  137.283 -64.2571 -158.142
LeftHand  0.540796 4.55601 13.1418
HEad  -16.5203 1.29602 -2.95174
RightUpLeg  -42.1876 -15.6948 4.78283
RightLeg  19.7037 7.3487 2.10312
RightFoot  8.27725 -0.0389237 0.915395
RightToes  -30.3164 -0.151574 -0.254159
463
root  -0.593405 33.8514 -13.1852 -152.174 46.2879 -176.653
LeftUpLeg  -40.9163 15.5964 -9.46524
LeftLeg  12.3661 -5.90782 -0.902125
LeftFoot  7.78681 0.0694173 -1.03679
LeftToes  -6.94329 7.65994e-007 1.12379e-007
Spine  14.4748 -2.2779 -1.08651
Spine1  27.3355 -7.00485 3.23218
RightShoulder  0.0919186 7.55421 -4.23498
RightArm  12.3727 -14.3626 73.9323
RightForeArm  107.375 78.6953 116.765
RightHand  -0.80045 -7.55859 12.4322
LeftShoulder1  0.319593 -1.37348 -1.6224
LeftArm  -10.5152 -19.8976 -64.2231
LeftForeArm  136.215 -62.1355 -160.135
LeftHand  0.73125 6.0898 13.2968
HEad  -14.3122 -0.412501 -2.14035
RightUpLeg  -41.094 -16.1542 5.16714
RightLeg  19.0154 4.70677 1.28826
RightFoot  7.51092 -0.0043586 0.443909
RightToes  -30.1301 -0.151137 -0.253117
464
root  -0.486176 33.8702 -13.1873 -153.216 46.3181 -177.169
LeftUpLeg  -39.8388 15.4535 -9.31171
LeftLeg  11.9863 -5.7195 -0.834784
LeftFoot  7.85544 0.0687134 -1.03309
LeftToes  -7.66411 7.65994e-007 1.12379e-007
Spine  14.0154 -2.33843 -1.03801
Spine1  26.4528 -7.08162 3.16574
RightShoulder  0.0865073 7.64886 -4.24108
RightArm  12.3344 -14.6995 74.1731
RightForeArm  105.444 78.8632 114.969
RightHand  -0.76142 -7.59161 11.7984
LeftShoulder1  0.305428 -0.785283 -1.41961
LeftArm  -9.66438 -23.1953 -65.0527
LeftForeArm  133.958 -60.3406 -161.604
LeftHand  1.01451 8.29696 13.5376
HEad  -11.7634 -1.86441 -1.50373
RightUpLeg  -39.5728 -15.9793 5.01762
RightLeg  18.2954 1.70826 0.44471
RightFoot  6.62094 0.0253815 0.00857175
RightToes  -29.8607 -0.150955 -0.25263
465
root  -0.356097 33.8961 -13.1794 -154.213 46.1373 -177.679
LeftUpLeg  -38.7913 15.2436 -9.13345
LeftLeg  11.5707 -5.60817 -0.777139
LeftFoot  8.00929 0.0693249 -1.04599
LeftToes  -8.3943 7.65994e-007 1.12379e-007
Spine  13.462 -2.39806 -0.924041
Spine1  25.3801 -7.13744 3.14196
RightShoulder  0.0812977 7.55953 -4.22917
RightArm  12.3654 -15.1466 74.409
RightForeArm  102.617 79.0689 112.509
RightHand  -0.742177 -7.57936 11.5293
LeftShoulder1  0.291124 -0.350925 -1.10095
LeftArm  -8.57633 -26.0889 -66.2746
LeftForeArm  131.157 -58.8574 -162.698
LeftHand  1.35868 11.387 13.187
HEad  -9.23854 -3.73898 -0.948753
RightUpLeg  -37.9935 -15.7319 4.70957
RightLeg  17.2901 -0.588711 -0.142648
RightFoot  6.13169 0.0437843 -0.259707
RightToes  -30.087 -0.15094 -0.252587
466
root  -0.228459 33.9311 -13.1748 -155.208 46.0505 -177.979
LeftUpLeg  -37.5429 14.9654 -8.71508
LeftLeg  11.0885 -5.2327 -0.680537
LeftFoot  8.22916 0.067896 -1.02393
LeftToes  -8.95791 7.65994e-007 1.12379e-007
Spine  12.9869 -2.43429 -0.811389
Spine1  24.4671 -7.13766 3.10402
RightShoulder  0.0768002 7.57647 -4.14714
RightArm  12.3785 -15.4404 74.4979
RightForeArm  99.6706 79.2524 109.987
RightHand  -0.745868 -7.67047 11.4518
LeftShoulder1  0.279311 0.277509 -1.01393
LeftArm  -7.12699 -28.8547 -67.7838
LeftForeArm  128.497 -58.0409 -163.263
LeftHand  1.46573 13.9747 11.5412
HEad  -7.23853 -4.80287 -0.745694
RightUpLeg  -36.2815 -14.822 3.88965
RightLeg  16.0212 -1.67223 -0.365338
RightFoot  6.55465 0.0533933 -0.399262
RightToes  -30.8116 -0.151001 -0.252879
467
root  -0.0948098 33.9676 -13.1794 -156.112 46.1199 -178.233
LeftUpLeg  -36.3283 14.7628 -8.30824
LeftLeg  10.6006 -4.82299 -0.585764
LeftFoot  8.39355 0.0653134 -0.981295
LeftToes  -9.44351 7.65994e-007 1.12379e-007
Spine  12.5208 -2.41796 -0.678774
Spine1  23.5805 -7.01745 3.07615
RightShoulder  0.0734045 7.56371 -4.24576
RightArm  12.538 -15.7008 74.6062
RightForeArm  97.9693 79.3583 108.336
RightHand  -0.774693 -7.87776 11.5758
LeftShoulder1  0.266366 0.744757 -0.858223
LeftArm  -5.89481 -30.8481 -69.5282
LeftForeArm  125.689 -57.6177 -163.553
LeftHand  1.33778 16.0612 9.08719
HEad  -4.79991 -5.9098 -0.494882
RightUpLeg  -35.0557 -14.5692 3.42966
RightLeg  15.505 -1.77272 -0.370441
RightFoot  6.61193 0.0545394 -0.414108
RightToes  -31.5205 -0.151049 -0.253394
468
root  0.0503849 34.0076 -13.1815 -156.974 46.1438 -178.25
LeftUpLeg  -34.9426 14.3003 -7.52248
LeftLeg  10.127 -4.13095 -0.467414
LeftFoot  8.59194 0.0601089 -0.895852
LeftToes  -10.1507 7.65994e-007 1.12379e-007
Spine  12.1925 -2.42107 -0.533153
Spine1  22.9445 -6.95739 3.12558
RightShoulder  0.0721274 7.8078 -4.08429
RightArm  12.5169 -16.0467 74.4322
RightForeArm  97.7519 79.3709 108.127
RightHand  -0.760768 -7.86488 11.3935
LeftShoulder1  0.25674 1.13389 -0.548194
LeftArm  -4.63522 -32.3102 -71.2023
LeftForeArm  123.934 -56.9958 -163.955
LeftHand  1.35924 17.4173 8.48327
HEad  -4.14585 -6.89143 -0.223316
RightUpLeg  -33.5247 -14.3542 3.16047
RightLeg  14.6496 -1.84825 -0.357292
RightFoot  6.73724 0.0552075 -0.427173
RightToes  -31.7376 -0.150996 -0.254024
469
root  0.200994 34.0423 -13.1731 -157.525 46.2062 -178.454
LeftUpLeg  -34.218 14.3328 -7.29211
LeftLeg  9.90032 -4.01725 -0.438502
LeftFoot  8.65639 0.0593975 -0.878784
LeftToes  -10.5241 7.65994e-007 1.12379e-007
Spine  11.7255 -2.38388 -0.375113
Spine1  22.0667 -6.78035 3.12063
RightShoulder  0.067835 7.74954 -3.97273
RightArm  12.543 -16.5949 74.3922
RightForeArm  96.7523 79.4028 107.596
RightHand  -0.760087 -7.87057 11.3758
LeftShoulder1  0.24223 1.32485 -0.441352
LeftArm  -3.48505 -33.186 -72.5357
LeftForeArm  123.601 -56.2135 -164.432
LeftHand  1.32734 17.8604 8.05928
HEad  -3.79381 -7.80487 0.0682829
RightUpLeg  -32.5179 -14.9418 3.34242
RightLeg  13.6657 -1.26564 -0.221799
RightFoot  6.65513 0.0494182 -0.34451
RightToes  -31.0198 -0.15075 -0.254657
470
root  0.356589 34.0743 -13.1711 -158.067 46.3267 -178.605
LeftUpLeg  -33.3528 14.3785 -7.02084
LeftLeg  9.45547 -3.83453 -0.388513
LeftFoot  8.837 0.0583989 -0.85639
LeftToes  -10.8228 7.65994e-007 1.12379e-007
Spine  11.2479 -2.31608 -0.258706
Spine1  21.1815 -6.5292 3.03415
RightShoulder  0.0628201 7.74045 -3.85977
RightArm  12.6346 -17.0727 74.3232
RightForeArm  95.8947 79.4498 106.765
RightHand  -0.755977 -7.97567 11.1729
LeftShoulder1  0.228374 1.56351 -0.358404
LeftArm  -2.18997 -33.8594 -73.7734
LeftForeArm  121.938 -55.8384 -164.661
LeftHand  1.30873 18.755 7.53982
HEad  -2.61515 -8.81292 0.313717
RightUpLeg  -31.3681 -15.4279 3.47534
RightLeg  12.466 -0.681062 -0.104093
RightFoot  6.83491 0.0438261 -0.268392
RightToes  -30.9081 -0.150224 -0.255183
471
root  0.51263 34.1055 -13.1756 -158.598 46.561 -178.711
LeftUpLeg  -32.4307 14.2744 -6.62152
LeftLeg  9.02921 -3.38555 -0.317748
LeftFoot  8.99709 0.0544419 -0.78775
LeftToes  -10.8998 7.65994e-007 1.12379e-007
Spine  10.8274 -2.20678 -0.160015
Spine1  20.4093 -6.19721 2.94205
RightShoulder  0.0589503 7.63622 -3.75023
RightArm  12.7176 -17.3688 74.2685
RightForeArm  95.2833 79.4863 106.084
RightHand  -0.753254 -7.95062 11.168
LeftShoulder1  0.214965 1.72052 -0.222729
LeftArm  -0.797418 -34.3117 -74.8488
LeftForeArm  120.954 -55.4137 -164.91
LeftHand  1.32194 19.5937 7.27227
HEad  -1.8472 -9.76616 0.474884
RightUpLeg  -30.3681 -15.891 3.59113
RightLeg  11.6318 0.0300318 0.00540999
RightFoot  6.93761 0.0369235 -0.174326
RightToes  -30.6598 -0.149454 -0.255493
472
root  0.670386 34.1335 -13.1901 -159.244 46.7364 -178.824
LeftUpLeg  -31.3334 14.1269 -6.18875
LeftLeg  8.50242 -2.97493 -0.251757
LeftFoot  9.18831 0.0508677 -0.725387
LeftToes  -11.0681 7.65994e-007 1.12379e-007
Spine  10.4663 -2.14765 -0.0374036
Spine1  19.7368 -5.98775 2.93434
RightShoulder  0.0557091 7.65844 -3.59028
RightArm  12.8395 -17.6979 74.0891
RightForeArm  94.6563 79.5117 105.594
RightHand  -0.73527 -7.91723 10.956
LeftShoulder1  0.203519 1.80486 -0.272804
LeftArm  0.64585 -34.5122 -75.7629
LeftForeArm  120.787 -55.185 -165.04
LeftHand  1.38948 19.7862 7.58212
HEad  -0.919109 -10.832 0.346527
RightUpLeg  -29.1929 -15.8399 3.40879
RightLeg  10.869 0.205492 0.0272058
RightFoot  7.02543 0.0342062 -0.14657
RightToes  -30.5873 -0.148519 -0.255476
473
root  0.827636 34.1594 -13.1982 -159.76 46.9784 -178.932
LeftUpLeg  -30.5098 14.2185 -5.89622
LeftLeg  8.22664 -2.72759 -0.21768
LeftFoot  9.25012 0.0483344 -0.680128
LeftToes  -11.359 7.65994e-007 1.12379e-007
Spine  10.0901 -2.08321 0.0580981
Spine1  19.0406 -5.76615 2.88289
RightShoulder  0.0528816 7.67323 -3.45307
RightArm  13.0823 -17.9466 73.9319
RightForeArm  94.1979 79.5318 105.191
RightHand  -0.709452 -7.79342 10.7481
LeftShoulder1  0.191297 1.6642 -0.299146
LeftArm  1.51596 -34.5013 -76.519
LeftForeArm  121.059 -54.9721 -165.158
LeftHand  1.46009 19.7947 7.98123
HEad  0.404363 -11.9394 0.274545
RightUpLeg  -28.266 -15.7684 3.31862
RightLeg  10.279 0.323993 0.0388087
RightFoot  7.08696 0.0318719 -0.124998
RightToes  -30.4414 -0.147391 -0.255022
474
root  0.98117 34.181 -13.2164 -160.252 47.2202 -179.02
LeftUpLeg  -29.7191 14.3113 -5.61709
LeftLeg  8.00307 -2.47924 -0.188205
LeftFoot  9.27235 0.0455161 -0.631959
LeftToes  -11.5963 7.65994e-007 1.12379e-007
Spine  9.72386 -2.04538 0.152763
Spine1  18.3629 -5.59979 2.83561
RightShoulder  0.0502995 7.55375 -3.28913
RightArm  13.456 -18.0604 73.7715
RightForeArm  93.349 79.566 104.481
RightHand  -0.697102 -7.77227 10.596
LeftShoulder1  0.179937 1.62535 -0.359772
LeftArm  2.41735 -34.4608 -77.32
LeftForeArm  121.605 -54.6311 -165.344
LeftHand  1.46349 19.9552 7.93218
HEad  1.4295 -12.9237 0.312574
RightUpLeg  -27.4465 -15.7298 3.23721
RightLeg  9.90764 0.49312 0.0551495
RightFoot  7.01358 0.0291996 -0.0973307
RightToes  -30.2249 -0.146041 -0.253526
